<svg xmlns="http://www.w3.org/2000/svg" viewBox="0 0 260 50">
  <!-- Hexagon with recycle arrows -->
  <polygon points="25,2 44,13.5 44,36.5 25,48 6,36.5 6,13.5" fill="none" stroke="#ffffff" stroke-width="2.5"/>
  <polygon points="25,8 39,17 39,33 25,42 11,33 11,17" fill="rgba(255,255,255,0.15)" stroke="none"/>
  <g transform="translate(25,25)" fill="none" stroke="#ffffff" stroke-width="2" stroke-linecap="round" stroke-linejoin="round">
    <path d="M -8 -2 A 9 9 0 0 1 6 -6" />
    <polyline points="5,-9 6,-6 3,-5" />
    <path d="M 8 2 A 9 9 0 0 1 -6 6" />
    <polyline points="-5,9 -6,6 -3,5" />
  </g>
  <!-- Company Name -->
  <text x="56" y="22" font-family="'Noto Sans JP', sans-serif" font-size="13" font-weight="700" fill="#ffffff" letter-spacing="1">嶋本建設株式会社</text>
  <text x="56" y="40" font-family="'Noto Sans JP', sans-serif" font-size="11" fill="#ffffff" opacity="0.95" letter-spacing="0.5">リサイクルセンター</text>
</svg>
